SplineFontDB: 3.2
FontName: BlockUmbra
FullName: Block Umbra
FamilyName: Block Umbra
Weight: Medium
Copyright: Copyright 2021 S V Abeykoon\n\nPermission is hereby granted, free of charge, to any person obtaining a copy of this font and associated documentation files, to deal in the font without restriction, including without limitation the rights to use, copy, modify, merge, publish, distribute, sublicense, and/or sell copies of the font, and to permit persons to whom the font is furnished to do so, subject to the following conditions:\n\nThe above copyright notice and this permission notice shall be included in all copies or substantial portions of the font.\n\nTHE FONT IS PROVIDED "AS IS", WITHOUT WARRANTY OF ANY KIND, EXPRESS OR IMPLIED, INCLUDING BUT NOT LIMITED TO THE WARRANTIES OF MERCHANTABILITY, FITNESS FOR A PARTICULAR PURPOSE AND NONINFRINGEMENT. IN NO EVENT SHALL THE AUTHORS OR COPYRIGHT HOLDERS BE LIABLE FOR ANY CLAIM, DAMAGES OR OTHER LIABILITY, WHETHER IN AN ACTION OF CONTRACT, TORT OR OTHERWISE, ARISING FROM, OUT OF OR IN CONNECTION WITH THE FONT OR THE USE OR OTHER DEALINGS IN THE FONT.\n\n
Version: v1.0 - 01.0.00
ItalicAngle: 0
UnderlinePosition: -143
UnderlineWidth: 20
Ascent: 800
Descent: 200
InvalidEm: 0
sfntRevision: 0x00010000
LayerCount: 2
Layer: 0 0 "Back" 1
Layer: 1 0 "Fore" 0
XUID: [1021 326 -899640650 28893]
StyleMap: 0x0040
FSType: 4
OS2Version: 3
OS2_WeightWidthSlopeOnly: 0
OS2_UseTypoMetrics: 0
CreationTime: 1013946718
ModificationTime: 1617697445
PfmFamily: 81
TTFWeight: 400
TTFWidth: 5
LineGap: 0
VLineGap: 0
Panose: 0 0 4 0 0 0 0 0 0 0
OS2TypoAscent: 723
OS2TypoAOffset: 0
OS2TypoDescent: -105
OS2TypoDOffset: 0
OS2TypoLinegap: 0
OS2WinAscent: 723
OS2WinAOffset: 0
OS2WinDescent: 105
OS2WinDOffset: 0
HheadAscent: 800
HheadAOffset: 0
HheadDescent: -200
HheadDOffset: 0
OS2SubXSize: 700
OS2SubYSize: 650
OS2SubXOff: 0
OS2SubYOff: 143
OS2SupXSize: 700
OS2SupYSize: 650
OS2SupXOff: 0
OS2SupYOff: 453
OS2StrikeYSize: 50
OS2StrikeYPos: 259

StartChar: .notdef
Encoding: 65536 -1 0
Width: 500
Flags: MW
HStem: 0 50<100 400 100 450> 483 50<100 400 100 100>
VStem: 50 50<50 50 50 483> 400 50<50 483 483 483>
LayerCount: 2
Fore
SplineSet
50 0 m 1
 50 533 l 1
 450 533 l 1
 450 0 l 1
 50 0 l 1
100 50 m 1
 400 50 l 1
 400 483 l 1
 100 483 l 1
 100 50 l 1
EndSplineSet
EndChar

StartChar: zero
Encoding: 48 48 2
Width: 891
Flags: W
LayerCount: 2
Fore
SplineSet
553.493164062 371.33984375 m 1
 591.375 181.025390625 l 1
 380.91015625 199.553710938 l 1
 381.395507812 224.48046875 l 1
 539.034179688 232.774414062 l 1
 527.528320312 367.977539062 l 1
 553.493164062 371.33984375 l 1
828.000976562 721 m 1
 828.000976562 0 l 1
 58.0009765625 0 l 1
 58.0009765625 721 l 1
 828.000976562 721 l 1
84.03515625 707.4609375 m 1
 132.166992188 55.7607421875 l 1
 802.051757812 13.41015625 l 1
 757.770507812 659.334960938 l 1
 84.03515625 707.4609375 l 1
514.94921875 435.739257812 m 1
 371.92578125 462.814453125 l 1
 369.008789062 273.8125 l 1
 342.834960938 272.775390625 l 1
 316.702148438 528.270507812 l 1
 521.848632812 459.80078125 l 1
 514.94921875 435.739257812 l 1
EndSplineSet
EndChar

StartChar: one
Encoding: 49 49 3
Width: 891
Flags: W
LayerCount: 2
Fore
SplineSet
828 518.129882812 m 1
 828 0 l 1
 58 0 l 1
 58 315.5 l 1
 147 315.5 l 1
 147 406.5 l 1
 58 406.5 l 1
 58 721.045898438 l 1
 654.475585938 718.954101562 l 1
 654.475585938 516.197265625 l 1
 828 518.129882812 l 1
111.684570312 464.5 m 1
 200 463 l 1
 226 257 l 1
 106.78515625 260.235351562 l 1
 117.202148438 48.8330078125 l 1
 802.036132812 13.2451171875 l 1
 769.877929688 470.080078125 l 1
 648.55859375 465.876953125 l 1
 610.2578125 216.1796875 l 1
 584.158203125 218.0546875 l 1
 586.205078125 669.447265625 l 1
 84.6005859375 707.352539062 l 1
 111.684570312 464.5 l 1
EndSplineSet
EndChar

StartChar: two
Encoding: 50 50 4
Width: 891
Flags: W
LayerCount: 2
Fore
SplineSet
828 721 m 1
 828 0 l 1
 58 0 l 1
 58 721 l 1
 828 721 l 1
114 418 m 1
 114.938476562 40.00390625 l 1
 800.1875 13.1337890625 l 1
 782 215 l 1
 377.4453125 199.794921875 l 1
 434 256 l 1
 782 266 l 1
 772.721679688 677.079101562 l 1
 84.8779296875 707.819335938 l 1
 116 479 l 1
 492.102539062 484.345703125 l 1
 377.4921875 420.91015625 l 1
 114 418 l 1
EndSplineSet
EndChar

StartChar: three
Encoding: 51 51 5
Width: 891
Flags: W
LayerCount: 2
Fore
SplineSet
828 721 m 1
 828 0 l 1
 58 0 l 1
 58 721 l 1
 828 721 l 1
106 421 m 1
 112 251 l 1
 459.990234375 252 l 1
 431.885742188 210.884765625 l 1
 114 201 l 1
 115.442382812 42.9296875 l 1
 802.295898438 13.107421875 l 1
 767.607421875 675.075195312 l 1
 85.0361328125 707.76171875 l 1
 102 472 l 1
 462.487304688 464.768554688 l 1
 439.408203125 426.905273438 l 1
 106 421 l 1
EndSplineSet
EndChar

StartChar: four
Encoding: 52 52 6
Width: 891
Flags: W
LayerCount: 2
Fore
SplineSet
828 721 m 1
 828 0 l 1
 381.603515625 0 l 1
 381.603515625 198.5 l 1
 58 198.5 l 1
 58 721 l 1
 828 721 l 1
120.065429688 259.166015625 m 1
 440.375976562 250.138671875 l 1
 440.375976562 38.6328125 l 1
 802.190429688 13.4912109375 l 1
 763.69921875 672.658203125 l 1
 486 681 l 1
 482 436 l 1
 448 437 l 1
 406 685 l 1
 84.158203125 707.057617188 l 1
 120.065429688 259.166015625 l 1
EndSplineSet
EndChar

StartChar: five
Encoding: 53 53 7
Width: 891
Flags: W
LayerCount: 2
Fore
SplineSet
828 721 m 1
 828 0 l 1
 58 0 l 1
 58 721 l 1
 828 721 l 1
774.75 455.5 m 1
 426.455078125 455.5 l 1
 485.0703125 505.3671875 l 1
 772.448242188 513.138671875 l 1
 765.512695312 669.181640625 l 1
 84.0341796875 707.684570312 l 1
 118.088867188 253.624023438 l 1
 404.776367188 256.560546875 l 1
 467.430664062 189.005859375 l 1
 117 182.73046875 l 1
 117 47.861328125 l 1
 802.15625 13.2177734375 l 1
 774.75 455.5 l 1
EndSplineSet
EndChar

StartChar: six
Encoding: 54 54 8
Width: 891
Flags: W
LayerCount: 2
Fore
SplineSet
828 721 m 1
 828 0 l 1
 58 0 l 1
 58 721 l 1
 828 721 l 1
767.90234375 467.5 m 1
 421.828125 467.5 l 1
 481.66796875 524.518554688 l 1
 766 523.544921875 l 1
 766 672.158203125 l 1
 83.791015625 707.76171875 l 1
 122.327148438 44.94140625 l 1
 801.9765625 13.1708984375 l 1
 767.90234375 467.5 l 1
424.47265625 271.032226562 m 1
 381.604492188 112.186523438 l 1
 381.604492188 315.5 l 1
 581.44921875 315.5 l 1
 424.47265625 271.032226562 l 1
EndSplineSet
EndChar

StartChar: seven
Encoding: 55 55 9
Width: 891
Flags: W
LayerCount: 2
Fore
SplineSet
828 721 m 1
 828 0 l 1
 381.603515625 0 l 1
 381.603515625 198.5 l 1
 58 198.5 l 1
 58 721 l 1
 828 721 l 1
116.142578125 255.5 m 1
 383.703125 255.5 l 1
 383.703125 381.448242188 l 1
 445.6484375 254.720703125 l 1
 443.633789062 31.8984375 l 1
 798.249023438 15.1630859375 l 1
 761.641601562 674.095703125 l 1
 83.9716796875 707.788085938 l 1
 116.142578125 255.5 l 1
EndSplineSet
EndChar

StartChar: eight
Encoding: 56 56 10
Width: 891
Flags: W
LayerCount: 2
Fore
SplineSet
828 721 m 1
 828 0 l 1
 58 0 l 1
 58 721 l 1
 828 721 l 1
779.032226562 322.119140625 m 1
 639.9140625 342.619140625 l 1
 776 374 l 1
 772.890625 674.123046875 l 1
 84.044921875 707.796875 l 1
 111.318359375 350.419921875 l 1
 226 329 l 1
 111.848632812 296.5 l 1
 128.245117188 46.9072265625 l 1
 801.701171875 13.2333984375 l 1
 779.032226562 322.119140625 l 1
430.666015625 526.0546875 m 1
 386 414 l 1
 384 566 l 1
 538.396484375 562.5 l 1
 430.666015625 526.0546875 l 1
381.603515625 103.974609375 m 1
 377.603515625 285.5 l 1
 528 281 l 1
 420.474609375 246.446289062 l 1
 381.603515625 103.974609375 l 1
EndSplineSet
EndChar

StartChar: nine
Encoding: 57 57 11
Width: 891
Flags: W
LayerCount: 2
Fore
SplineSet
827 721 m 1
 827 0 l 1
 57 0 l 1
 57 721 l 1
 827 721 l 1
114 241 m 1
 460.266601562 241 l 1
 400.522460938 184.07421875 l 1
 117.9453125 180.177734375 l 1
 124 45.888671875 l 1
 801.314453125 13.1767578125 l 1
 767.590820312 677.041992188 l 1
 83.0751953125 707.8515625 l 1
 114 241 l 1
451.903320312 475.283203125 m 1
 323.0625 522.5 l 1
 503.395507812 522.5 l 1
 503.395507812 353.533203125 l 1
 451.903320312 475.283203125 l 1
EndSplineSet
EndChar

StartChar: A
Encoding: 65 65 12
Width: 891
Flags: W
LayerCount: 2
Fore
SplineSet
829 722 m 1
 829 0 l 1
 57 0 l 1
 57 722 l 1
 829 722 l 1
548.436523438 270.791992188 m 1
 608.864257812 34.486328125 l 1
 803.275390625 14.001953125 l 1
 769.590820312 679.024414062 l 1
 82.9736328125 708.87890625 l 1
 130.1640625 50.138671875 l 1
 501.149414062 38.9345703125 l 1
 479.772460938 291.541015625 l 1
 548.436523438 270.791992188 l 1
486.000976562 378 m 1
 449.73828125 476.771484375 l 1
 314.000976562 561 l 1
 491.701171875 517.442382812 l 1
 534.000976562 362 l 1
 486.000976562 378 l 1
EndSplineSet
EndChar

StartChar: B
Encoding: 66 66 13
Width: 891
Flags: W
LayerCount: 2
Fore
SplineSet
564.075195312 90.255859375 m 1
 445.70703125 240.076171875 l 1
 240.530273438 293.948242188 l 1
 487.916992188 286.217773438 l 1
 564.075195312 90.255859375 l 1
622 391 m 1
 800.497070312 397.368164062 l 1
 752.943359375 654.338867188 l 1
 83.080078125 708.319335938 l 1
 132.151367188 64.619140625 l 1
 802.017578125 13.68359375 l 1
 760.209960938 320.265625 l 1
 622 391 l 1
526 456 m 1
 463.999023438 548 l 1
 278.759765625 599.833007812 l 1
 498.202148438 581.8046875 l 1
 526 456 l 1
828.999023438 722 m 1
 828.999023438 0 l 1
 56.9990234375 0 l 1
 56.9990234375 722 l 1
 828.999023438 722 l 1
EndSplineSet
EndChar

StartChar: C
Encoding: 67 67 14
Width: 891
Flags: W
LayerCount: 2
Fore
SplineSet
829 0 m 1
 57 0 l 1
 57 722 l 1
 829 722 l 1
 829 0 l 1
83.2255859375 708.220703125 m 1
 128 57 l 1
 801.629882812 13.796875 l 1
 770 292 l 1
 416 315 l 1
 500 357 l 1
 770 363 l 1
 760 670 l 1
 83.2255859375 708.220703125 l 1
EndSplineSet
EndChar

StartChar: D
Encoding: 68 68 15
Width: 891
Flags: W
LayerCount: 2
Fore
SplineSet
797.4921875 714.87890625 m 1
 828.536132812 0 l 1
 57 0 l 1
 57 722.126953125 l 1
 797.4921875 714.87890625 l 1
141.993164062 67.5703125 m 1
 801.158203125 13.7626953125 l 1
 720.358398438 652.461914062 l 1
 83.318359375 708.189453125 l 1
 141.993164062 67.5703125 l 1
550 185 m 1
 456 458 l 1
 310.555664062 533.190429688 l 1
 500.553710938 508.120117188 l 1
 550 185 l 1
EndSplineSet
EndChar

StartChar: E
Encoding: 69 69 16
Width: 891
Flags: W
LayerCount: 2
Fore
SplineSet
829 722 m 1
 829 0 l 1
 57 0 l 1
 57 722 l 1
 829 722 l 1
83.0302734375 708.630859375 m 1
 132.150390625 48.876953125 l 1
 800.709960938 13.3896484375 l 1
 753.275390625 226.395507812 l 1
 347.334960938 262.553710938 l 1
 348.502929688 287.5 l 1
 799.311523438 289.427734375 l 1
 763.588867188 425.516601562 l 1
 347.111328125 469.576171875 l 1
 348.887695312 494.49609375 l 1
 799.711914062 483.889648438 l 1
 757.404296875 668.10546875 l 1
 83.0302734375 708.630859375 l 1
EndSplineSet
EndChar

StartChar: F
Encoding: 70 70 17
Width: 891
Flags: W
LayerCount: 2
Fore
SplineSet
829 202.971679688 m 1
 504.384765625 202.971679688 l 1
 504.384765625 0 l 1
 57 0 l 1
 57 722 l 1
 829 722 l 1
 829 202.971679688 l 1
136.139648438 57.0859375 m 1
 475.370117188 14.5869140625 l 1
 431.372070312 262.176757812 l 1
 801.595703125 224.158203125 l 1
 772.666992188 406.495117188 l 1
 387.15234375 442.559570312 l 1
 388.6328125 467.499023438 l 1
 796.4921875 461.721679688 l 1
 760.916992188 658.275390625 l 1
 83.1474609375 708.4140625 l 1
 136.139648438 57.0859375 l 1
EndSplineSet
EndChar

StartChar: G
Encoding: 71 71 18
Width: 891
Flags: W
LayerCount: 2
Fore
SplineSet
829 722 m 1
 829 0 l 1
 57 0 l 1
 57 722 l 1
 829 722 l 1
83.1494140625 708.583007812 m 1
 136.08984375 66.587890625 l 1
 802.01953125 13.7373046875 l 1
 744.499023438 437.125 l 1
 450.69921875 453.693359375 l 1
 468.684570312 172.771484375 l 1
 442.715820312 169.610351562 l 1
 372.421875 515.028320312 l 1
 797.645507812 501.048828125 l 1
 759.416015625 666.130859375 l 1
 83.1494140625 708.583007812 l 1
EndSplineSet
EndChar

StartChar: H
Encoding: 72 72 19
Width: 891
Flags: W
LayerCount: 2
Fore
SplineSet
828 721 m 1
 828 0 l 1
 58 0 l 1
 58 721 l 1
 828 721 l 1
504.190429688 281.420898438 m 1
 512.412109375 33.66015625 l 1
 802.295898438 13.482421875 l 1
 768.608398438 673.749023438 l 1
 500.46484375 679.2265625 l 1
 506.959960938 364.657226562 l 1
 428.102539062 409.740234375 l 1
 415.704101562 680.461914062 l 1
 83.7890625 707.341796875 l 1
 121.32421875 40.357421875 l 1
 438.854492188 36.658203125 l 1
 427.885742188 335.563476562 l 1
 504.190429688 281.420898438 l 1
EndSplineSet
EndChar

StartChar: I
Encoding: 73 73 20
Width: 891
Flags: W
LayerCount: 2
Fore
SplineSet
827.66015625 0 m 1
 58.41015625 0 l 1
 54 230.157226562 l 1
 212.384765625 253.850585938 l 1
 218 421 l 1
 70 460 l 1
 58.1806640625 721 l 1
 828.180664062 721 l 1
 826 423 l 1
 714 405 l 1
 706 254 l 1
 840 259 l 1
 827.66015625 0 l 1
84.576171875 203.817382812 m 1
 128 54 l 1
 808 17 l 1
 790 221 l 1
 632 224 l 1
 632 440 l 1
 790 463 l 1
 754 662 l 1
 84 702 l 1
 122 492 l 1
 268 448 l 1
 278 213 l 1
 84.576171875 203.817382812 l 1
EndSplineSet
EndChar

StartChar: J
Encoding: 74 74 21
Width: 891
Flags: W
LayerCount: 2
Fore
SplineSet
828 721 m 1
 828 0 l 1
 58 0 l 1
 58 721 l 1
 828 721 l 1
108.420898438 440.369140625 m 1
 143.962890625 59.697265625 l 1
 801.692382812 13.541015625 l 1
 742.0234375 658.3515625 l 1
 84.6064453125 707.368164062 l 1
 107.833007812 500.12109375 l 1
 480.409179688 453.080078125 l 1
 502.25390625 196.020507812 l 1
 476.543945312 191.623046875 l 1
 415.880859375 397.784179688 l 1
 108.420898438 440.369140625 l 1
EndSplineSet
EndChar

StartChar: K
Encoding: 75 75 22
Width: 891
Flags: W
LayerCount: 2
Fore
SplineSet
828 721 m 1
 696 326 l 1
 828 0 l 1
 58 0 l 1
 58 721 l 1
 828 721 l 1
384 379 m 1
 438 25 l 1
 800.84375 14.357421875 l 1
 623 315 l 1
 769 677 l 1
 451 683 l 1
 384 379 l 1
132.23046875 58.8271484375 m 1
 388 28 l 1
 382 382 l 1
 387.796875 687.3359375 l 1
 84.03515625 707.5390625 l 1
 132.23046875 58.8271484375 l 1
EndSplineSet
EndChar

StartChar: L
Encoding: 76 76 23
Width: 891
Flags: W
LayerCount: 2
Fore
SplineSet
828 315.5 m 1
 828 0 l 1
 58 0 l 1
 58 721 l 1
 504.396484375 721 l 1
 504.396484375 315.5 l 1
 828 315.5 l 1
83.8623046875 707.326171875 m 1
 124.294921875 47.8916015625 l 1
 801.520507812 13.259765625 l 1
 775.221679688 260.826171875 l 1
 456.66796875 269.846679688 l 1
 437.748046875 678.46875 l 1
 83.8623046875 707.326171875 l 1
EndSplineSet
EndChar

StartChar: M
Encoding: 77 77 24
Width: 891
Flags: W
LayerCount: 2
Fore
SplineSet
828 721 m 1
 828 0 l 1
 58 0 l 1
 58 721 l 1
 828 721 l 1
597.293945312 36.1376953125 m 1
 802.227539062 14.044921875 l 1
 766.64453125 676.66015625 l 1
 485.807617188 680.338867188 l 1
 441.5 380.66796875 l 1
 408.009765625 681.395507812 l 1
 83.7294921875 707.360351562 l 1
 118.375976562 44.275390625 l 1
 307.892578125 40.765625 l 1
 306.640625 323.25 l 1
 385.907226562 42.443359375 l 1
 540.875976562 41.564453125 l 1
 584.307617188 314.883789062 l 1
 597.293945312 36.1376953125 l 1
EndSplineSet
EndChar

StartChar: N
Encoding: 78 78 25
Width: 891
Flags: W
LayerCount: 2
Fore
SplineSet
828 721 m 1
 828 0 l 1
 58 0 l 1
 58 721 l 1
 828 721 l 1
342.03515625 412.13671875 m 1
 463 44 l 1
 801.896484375 13.8525390625 l 1
 751.895507812 663.876953125 l 1
 517 672 l 1
 592.830078125 321.521484375 l 1
 435 672 l 1
 84.3701171875 707.041015625 l 1
 145.90625 53.212890625 l 1
 386 45 l 1
 342.03515625 412.13671875 l 1
EndSplineSet
EndChar

StartChar: O
Encoding: 79 79 26
Width: 891
Flags: W
LayerCount: 2
Fore
SplineSet
490.61328125 481.875 m 1
 343 569 l 1
 542.755859375 526.913085938 l 1
 590.284179688 249.022460938 l 1
 564.755859375 243.447265625 l 1
 490.61328125 481.875 l 1
828 721 m 1
 828 0 l 1
 58 0 l 1
 58 721 l 1
 828 721 l 1
83.78125 707.848632812 m 1
 122.327148438 41.0068359375 l 1
 802.377929688 13.0712890625 l 1
 771.541992188 676.05859375 l 1
 83.78125 707.848632812 l 1
403.877929688 223.891601562 m 1
 555.974609375 154.411132812 l 1
 351 185 l 1
 329.178710938 413.895507812 l 1
 355.00390625 417.923828125 l 1
 403.877929688 223.891601562 l 1
EndSplineSet
EndChar

StartChar: P
Encoding: 80 80 27
Width: 891
Flags: W
LayerCount: 2
Fore
SplineSet
828 198.5 m 1
 504.396484375 198.5 l 1
 504.396484375 0 l 1
 58 0 l 1
 58 721 l 1
 828 721 l 1
 828 198.5 l 1
83.5791015625 13.4853515625 m 1
 442.248046875 38.6806640625 l 1
 458.037109375 254.305664062 l 1
 766.921875 259.306640625 l 1
 801.935546875 707.858398438 l 1
 111.5078125 677.041992188 l 1
 83.5791015625 13.4853515625 l 1
565.629882812 559.486328125 m 1
 402.698242188 496.231445312 l 1
 307.629882812 333.486328125 l 1
 358.999023438 544 l 1
 565.629882812 559.486328125 l 1
EndSplineSet
EndChar

StartChar: Q
Encoding: 81 81 28
Width: 891
Flags: W
LayerCount: 2
Fore
SplineSet
319 419 m 1
 302 561 l 1
 495 526 l 1
 339 514 l 1
 333 423 l 1
 319 419 l 1
58 0 m 1
 58 721 l 1
 828.029296875 721 l 1
 858 273 l 1
 803 249 l 1
 846 212 l 1
 863 0 l 1
 58 0 l 1
83.7919921875 707.826171875 m 1
 122.327148438 48.875 l 1
 827 32 l 1
 810 193 l 1
 702 254 l 1
 809 290 l 1
 770.220703125 675.091796875 l 1
 83.7919921875 707.826171875 l 1
360 246 m 1
 518 242 l 1
 527 325 l 1
 544 317 l 1
 546 196 l 1
 360 246 l 1
EndSplineSet
EndChar

StartChar: R
Encoding: 82 82 29
Width: 891
Flags: W
LayerCount: 2
Fore
SplineSet
772.098632812 305.69140625 m 1
 830.522460938 0 l 1
 58 0 l 1
 58 721 l 1
 827.78125 721 l 1
 835.188476562 316.010742188 l 1
 772.098632812 305.69140625 l 1
392.703125 304.681640625 m 1
 453.4609375 40.138671875 l 1
 769.24609375 29.064453125 l 1
 708.493164062 342.169921875 l 1
 786.37109375 355.4375 l 1
 767.67578125 676.055664062 l 1
 83.8291015625 707.841796875 l 1
 124.28125 46.1669921875 l 1
 387.744140625 38.892578125 l 1
 366.82421875 301.040039062 l 1
 392.703125 304.681640625 l 1
386.630859375 369.588867188 m 1
 359.000976562 364 l 1
 349.168945312 566.087890625 l 1
 556.000976562 538 l 1
 403.284179688 510.624023438 l 1
 386.630859375 369.588867188 l 1
EndSplineSet
EndChar

StartChar: S
Encoding: 83 83 30
Width: 891
Flags: W
LayerCount: 2
Fore
SplineSet
828 721 m 1
 828 0 l 1
 58 0 l 1
 58 721 l 1
 828 721 l 1
90.810546875 196.321289062 m 1
 131.969726562 60.83984375 l 1
 801.982421875 13.525390625 l 1
 775.776367188 373.861328125 l 1
 375 426 l 1
 344.109375 450.498046875 l 1
 798.005859375 458.227539062 l 1
 755.26953125 652.32421875 l 1
 84.0615234375 707.30078125 l 1
 116.12890625 279.1015625 l 1
 491.7421875 266.4921875 l 1
 458 231 l 1
 90.810546875 196.321289062 l 1
EndSplineSet
EndChar

StartChar: T
Encoding: 84 84 31
Width: 891
Flags: W
LayerCount: 2
Fore
SplineSet
161 0 m 1
 161 404.958007812 l 1
 58 404.958007812 l 1
 58 721 l 1
 828 721 l 1
 828 404.958007812 l 1
 725 404.958007812 l 1
 725 0 l 1
 161 0 l 1
221.663085938 44.6982421875 m 1
 698.588867188 13.4560546875 l 1
 666.0625 459.342773438 l 1
 783.573242188 452.310546875 l 1
 776.37109375 680.979492188 l 1
 84.578125 707.920898438 l 1
 112.80859375 461.131835938 l 1
 206.994140625 449.025390625 l 1
 221.663085938 44.6982421875 l 1
EndSplineSet
EndChar

StartChar: U
Encoding: 85 85 32
Width: 891
Flags: W
LayerCount: 2
Fore
SplineSet
828 721 m 1
 828 0 l 1
 58 0 l 1
 58 721 l 1
 828 721 l 1
83.876953125 707.469726562 m 1
 125.278320312 49.8583984375 l 1
 802.205078125 13.2666015625 l 1
 763.689453125 673.798828125 l 1
 505.3828125 680.176757812 l 1
 503.27734375 248.950195312 l 1
 441.641601562 255.859375 l 1
 433.255859375 682.37890625 l 1
 83.876953125 707.469726562 l 1
EndSplineSet
EndChar

StartChar: V
Encoding: 86 86 33
Width: 891
Flags: W
LayerCount: 2
Fore
SplineSet
60.0712890625 122.385742188 m 1
 58 721 l 1
 828.041992188 721 l 1
 828.041992188 104.412109375 l 1
 432.112304688 -0.61328125 l 1
 60.0712890625 122.385742188 l 1
114.608398438 162.046875 m 1
 433.015625 13.673828125 l 1
 773.009765625 146.40625 l 1
 771.088867188 661.236328125 l 1
 499.291015625 655.740234375 l 1
 460.3203125 172.03125 l 1
 434.186523438 171.755859375 l 1
 382.73046875 666.952148438 l 1
 83.876953125 706.555664062 l 1
 114.608398438 162.046875 l 1
EndSplineSet
EndChar

StartChar: W
Encoding: 87 87 34
Width: 891
Flags: W
LayerCount: 2
Fore
SplineSet
828 721 m 1
 828 0 l 1
 58 0 l 1
 58 721 l 1
 828 721 l 1
513.673828125 41.4423828125 m 1
 802.158203125 13.8779296875 l 1
 770.001953125 681 l 1
 612.556640625 681.412109375 l 1
 601.001953125 379 l 1
 540.001953125 678 l 1
 349.24609375 685.349609375 l 1
 301.883789062 389.010742188 l 1
 285.000976562 687 l 1
 83.8818359375 706.850585938 l 1
 124.268554688 40.4619140625 l 1
 422.533203125 39.537109375 l 1
 450.916992188 365.046875 l 1
 513.673828125 41.4423828125 l 1
EndSplineSet
EndChar

StartChar: X
Encoding: 88 88 35
Width: 891
Flags: W
LayerCount: 2
Fore
SplineSet
828 721 m 1
 828 0 l 1
 58 0 l 1
 58 721 l 1
 828 721 l 1
117.943359375 400.397460938 m 1
 251.999023438 349 l 1
 118.5546875 336.5 l 1
 107.485351562 31.1923828125 l 1
 421.155273438 46.9033203125 l 1
 436.201171875 287.752929688 l 1
 462.33984375 288.349609375 l 1
 489.549804688 47.326171875 l 1
 801.301757812 14.1396484375 l 1
 764.346679688 337.5 l 1
 585 342 l 1
 762.306640625 398.540039062 l 1
 770.623046875 679.458007812 l 1
 480.038085938 678.537109375 l 1
 452.901367188 425.715820312 l 1
 426.787109375 425.85546875 l 1
 402.587890625 679.485351562 l 1
 84.578125 707.180664062 l 1
 117.943359375 400.397460938 l 1
EndSplineSet
EndChar

StartChar: Y
Encoding: 89 89 36
Width: 891
Flags: W
LayerCount: 2
Fore
SplineSet
154.401367188 201.388671875 m 1
 58 204.30078125 l 1
 58 721 l 1
 828 721 l 1
 828 204.20703125 l 1
 741.046875 202.251953125 l 1
 724.025390625 0 l 1
 161.413085938 0 l 1
 154.401367188 201.388671875 l 1
698.145507812 13.9619140625 m 1
 674.15234375 253.5 l 1
 764.580078125 253.5 l 1
 785.34765625 690.572265625 l 1
 489 685 l 1
 456 333 l 1
 397 685 l 1
 84.40625 707.481445312 l 1
 129.885742188 249.83984375 l 1
 233.490234375 243.780273438 l 1
 235.594726562 58.318359375 l 1
 698.145507812 13.9619140625 l 1
EndSplineSet
EndChar

StartChar: Z
Encoding: 90 90 37
Width: 891
Flags: W
LayerCount: 2
Fore
SplineSet
828 721 m 1
 828 0 l 1
 58 0 l 1
 58 721 l 1
 828 721 l 1
88.2177734375 367.328125 m 1
 125.692382812 46.9375 l 1
 801.260742188 13.25390625 l 1
 770.705078125 259.4921875 l 1
 396.926757812 198.67578125 l 1
 390.953125 222.975585938 l 1
 795.98046875 339.997070312 l 1
 762.166992188 660.286132812 l 1
 84.767578125 707.435546875 l 1
 115.462890625 458.260742188 l 1
 492.490234375 482.471679688 l 1
 496.327148438 457.818359375 l 1
 88.2177734375 367.328125 l 1
EndSplineSet
EndChar

StartChar: a
Encoding: 97 97 38
Width: 891
Flags: W
LayerCount: 2
Fore
SplineSet
828 721 m 1
 828 0 l 1
 58 0 l 1
 58 721 l 1
 828 721 l 1
109.305664062 325.19140625 m 1
 118.606445312 50.830078125 l 1
 802.200195312 13.279296875 l 1
 763.672851562 671.141601562 l 1
 83.93359375 707.729492188 l 1
 104.030273438 412.66796875 l 1
 482.745117188 475.319335938 l 1
 489.254882812 451.1796875 l 1
 109.305664062 325.19140625 l 1
647.447265625 108.732421875 m 1
 559.192382812 254.891601562 l 1
 420.967773438 300.669921875 l 1
 597 301 l 1
 647.447265625 108.732421875 l 1
EndSplineSet
EndChar

StartChar: b
Encoding: 98 98 39
Width: 891
Flags: W
LayerCount: 2
Fore
SplineSet
828 621.452148438 m 1
 828 0 l 1
 58 0 l 1
 58 721 l 1
 504.396484375 721 l 1
 504.396484375 621.452148438 l 1
 828 621.452148438 l 1
84.1259765625 706.760742188 m 1
 134.133789062 52.8095703125 l 1
 802.091796875 13.3466796875 l 1
 765.78515625 563.6875 l 1
 443.505859375 568.684570312 l 1
 435.01171875 665.811523438 l 1
 84.1259765625 706.760742188 l 1
456.193359375 371.908203125 m 1
 321.717773438 419.5 l 1
 504.395507812 419.5 l 1
 504.395507812 211 l 1
 478.266601562 209.3828125 l 1
 456.193359375 371.908203125 l 1
EndSplineSet
EndChar

StartChar: c
Encoding: 99 99 40
Width: 891
Flags: W
LayerCount: 2
Fore
SplineSet
828 721 m 1
 828 0 l 1
 58 0 l 1
 58 721 l 1
 828 721 l 1
83.87109375 707.88671875 m 1
 126.262695312 49.8583984375 l 1
 801.349609375 13.3154296875 l 1
 771.213867188 269.926757812 l 1
 381.720703125 321.119140625 l 1
 317.459960938 374.448242188 l 1
 765.295898438 351.1796875 l 1
 772.725585938 678.061523438 l 1
 83.87109375 707.88671875 l 1
EndSplineSet
EndChar

StartChar: d
Encoding: 100 100 41
Width: 891
Flags: W
LayerCount: 2
Fore
SplineSet
828 721 m 1
 828 0 l 1
 58 0 l 1
 58 621.452148438 l 1
 381.603515625 621.452148438 l 1
 381.603515625 721 l 1
 828 721 l 1
454.01953125 670.615234375 m 1
 454.01953125 565.063476562 l 1
 84.05859375 603.948242188 l 1
 124.172851562 53.80078125 l 1
 802.241210938 13.345703125 l 1
 765.678710938 673.389648438 l 1
 454.01953125 670.615234375 l 1
381.603515625 211 m 1
 381.603515625 419.5 l 1
 558.430664062 419.5 l 1
 435.859375 372.0546875 l 1
 407.666992188 208.95703125 l 1
 381.603515625 211 l 1
EndSplineSet
EndChar

StartChar: e
Encoding: 101 101 42
Width: 891
Flags: W
LayerCount: 2
Fore
SplineSet
828 721 m 1
 828 0 l 1
 58 0 l 1
 58 721 l 1
 828 721 l 1
83.7490234375 707.849609375 m 1
 120.358398438 47.8916015625 l 1
 801.426757812 13.2607421875 l 1
 778.29296875 218.796875 l 1
 437.197265625 227.6171875 l 1
 369.612304688 279.134765625 l 1
 776.821289062 294.99609375 l 1
 771.174804688 676.076171875 l 1
 83.7490234375 707.849609375 l 1
429.233398438 479.028320312 m 1
 381.603515625 340.904296875 l 1
 381.603515625 523.5 l 1
 575.616210938 523.5 l 1
 429.233398438 479.028320312 l 1
EndSplineSet
EndChar

StartChar: f
Encoding: 102 102 43
Width: 891
Flags: W
LayerCount: 2
Fore
SplineSet
829 202.971679688 m 1
 504.384765625 202.971679688 l 1
 504.384765625 0 l 1
 57 0 l 1
 57 722 l 1
 829 722 l 1
 829 202.971679688 l 1
476.627929688 13.7685546875 m 1
 451.579101562 250.5 l 1
 773.000976562 250.5 l 1
 773.000976562 428.241210938 l 1
 477.084960938 445.69140625 l 1
 387.651367188 491.76171875 l 1
 771.232421875 482.801757812 l 1
 774.779296875 676.108398438 l 1
 82.8046875 708.83203125 l 1
 122.337890625 43.513671875 l 1
 476.627929688 13.7685546875 l 1
EndSplineSet
EndChar

StartChar: g
Encoding: 103 103 44
Width: 891
Flags: W
LayerCount: 2
Fore
SplineSet
828 721 m 1
 828 0 l 1
 58 0 l 1
 58 721 l 1
 828 721 l 1
129.961914062 186.467773438 m 1
 115.208007812 31.126953125 l 1
 802.30859375 12.8681640625 l 1
 767.606445312 676.05859375 l 1
 83.7138671875 707.84765625 l 1
 104.87890625 308.600585938 l 1
 130.150390625 241.5 l 1
 481.831054688 241.5 l 1
 483.004882812 216.549804688 l 1
 129.961914062 186.467773438 l 1
327.631835938 532.791015625 m 1
 550.57421875 508.133789062 l 1
 550.57421875 319.416015625 l 1
 505.678710938 462.71875 l 1
 327.631835938 532.791015625 l 1
EndSplineSet
EndChar

StartChar: h
Encoding: 104 104 45
Width: 891
Flags: W
LayerCount: 2
Fore
SplineSet
828 621.452148438 m 1
 828 0 l 1
 58 0 l 1
 58 721 l 1
 504.396484375 721 l 1
 504.396484375 621.452148438 l 1
 828 621.452148438 l 1
775.56640625 575.799804688 m 1
 448.7734375 583.814453125 l 1
 448.7734375 682.360351562 l 1
 83.7548828125 707.520507812 l 1
 120.333984375 36.5791015625 l 1
 405.930664062 38.4111328125 l 1
 380.884765625 410.9609375 l 1
 501.219726562 41.65234375 l 1
 802.328125 13.81640625 l 1
 775.56640625 575.799804688 l 1
EndSplineSet
EndChar

StartChar: i
Encoding: 105 105 46
Width: 891
Flags: W
LayerCount: 2
Fore
SplineSet
828 315.5 m 1
 828 0 l 1
 58 0 l 1
 58 315.5 l 1
 161 315.5 l 1
 161 406.5 l 1
 58 406.5 l 1
 58 721 l 1
 828 721 l 1
 828 406.5 l 1
 725 406.5 l 1
 725 315.5 l 1
 828 315.5 l 1
119.055664062 255.235351562 m 1
 119.94921875 50.8095703125 l 1
 801.41796875 13.3251953125 l 1
 774.258789062 254.139648438 l 1
 669.30859375 260.205078125 l 1
 666.9140625 461.000976562 l 1
 771.3828125 457.018554688 l 1
 761.536132812 669.18359375 l 1
 84.5205078125 707.650390625 l 1
 111.765625 456.091796875 l 1
 223.573242188 452.030273438 l 1
 216.377929688 253.24609375 l 1
 119.055664062 255.235351562 l 1
EndSplineSet
EndChar

StartChar: j
Encoding: 106 106 47
Width: 891
Flags: W
LayerCount: 2
Fore
SplineSet
828 761 m 1
 828 15 l 1
 58 15 l 1
 58 761 l 1
 828 761 l 1
108.420898438 467.869140625 m 1
 120 70 l 1
 801.692382812 41.041015625 l 1
 774 705 l 1
 84.6064453125 734.868164062 l 1
 107.833007812 527.62109375 l 1
 480.409179688 480.580078125 l 1
 502.25390625 223.520507812 l 1
 476.543945312 219.123046875 l 1
 415.880859375 425.284179688 l 1
 108.420898438 467.869140625 l 1
EndSplineSet
EndChar

StartChar: k
Encoding: 107 107 48
Width: 891
Flags: W
LayerCount: 2
Fore
SplineSet
828 621.452148438 m 1
 818 358 l 1
 719 315 l 1
 850 0 l 1
 58 0 l 1
 58 721 l 1
 504.396484375 721 l 1
 504.396484375 621.452148438 l 1
 828 621.452148438 l 1
410 291 m 1
 459 42 l 1
 801.092773438 14.626953125 l 1
 657 341 l 1
 776 392 l 1
 786.924804688 584.034179688 l 1
 505.8828125 574.861328125 l 1
 428 390 l 1
 432.71484375 678.463867188 l 1
 83.6494140625 707.327148438 l 1
 114.412109375 45.9296875 l 1
 409 44 l 1
 410 291 l 1
EndSplineSet
EndChar

StartChar: l
Encoding: 108 108 49
Width: 891
Flags: W
LayerCount: 2
Fore
SplineSet
828 315.5 m 1
 828 0 l 1
 58 0 l 1
 58 721 l 1
 504.396484375 721 l 1
 504.396484375 315.5 l 1
 828 315.5 l 1
83.90234375 707.135742188 m 1
 125.278320312 52.8095703125 l 1
 801.891601562 13.34765625 l 1
 781.921875 262.974609375 l 1
 459.825195312 275.991210938 l 1
 440.905273438 673.607421875 l 1
 83.90234375 707.135742188 l 1
EndSplineSet
EndChar

StartChar: m
Encoding: 109 109 50
Width: 891
Flags: W
LayerCount: 2
Fore
SplineSet
828 721 m 1
 828 0 l 1
 58 0 l 1
 58 721 l 1
 828 721 l 1
594.797851562 402.938476562 m 1
 600.7734375 45.7119140625 l 1
 802.280273438 14.740234375 l 1
 770.588867188 677.383789062 l 1
 474.44140625 674.615234375 l 1
 444 375 l 1
 405.528320312 677.557617188 l 1
 83.7109375 707.184570312 l 1
 117.365234375 37.9501953125 l 1
 313.91796875 45.025390625 l 1
 277 361 l 1
 380.24609375 46.6337890625 l 1
 520.373046875 48.3671875 l 1
 594.797851562 402.938476562 l 1
EndSplineSet
EndChar

StartChar: n
Encoding: 110 110 51
Width: 891
Flags: W
LayerCount: 2
Fore
SplineSet
828 721 m 1
 828 0 l 1
 58 0 l 1
 58 721 l 1
 828 721 l 1
482 397 m 1
 508 52 l 1
 802.141601562 26.3994140625 l 1
 762.689453125 682.657226562 l 1
 79 705 l 1
 125.2421875 59 l 1
 428 58 l 1
 412.90234375 407 l 1
 482 397 l 1
EndSplineSet
EndChar

StartChar: o
Encoding: 111 111 52
Width: 891
Flags: W
LayerCount: 2
Fore
SplineSet
469.623046875 462.875 m 1
 336 534 l 1
 521.766601562 507.913085938 l 1
 563 271 l 1
 537.471679688 265.424804688 l 1
 469.623046875 462.875 l 1
422.76953125 242.891601562 m 1
 554 170 l 1
 369.916992188 195.588867188 l 1
 348.0703125 432.895507812 l 1
 373.895507812 436.923828125 l 1
 422.76953125 242.891601562 l 1
828 721 m 1
 828 0 l 1
 58 0 l 1
 58 721 l 1
 828 721 l 1
83.78515625 707.846679688 m 1
 122.327148438 43.95703125 l 1
 802.3359375 13.1337890625 l 1
 769.57421875 676.05859375 l 1
 83.78515625 707.846679688 l 1
EndSplineSet
EndChar

StartChar: p
Encoding: 112 112 53
Width: 891
Flags: W
LayerCount: 2
Fore
SplineSet
477.350585938 1.029296875 m 1
 57 -0.033203125 l 1
 57 722.982421875 l 1
 808.3515625 724.018554688 l 1
 791.6640625 142.32421875 l 1
 494.192382812 137.474609375 l 1
 477.350585938 1.029296875 l 1
117.376953125 44.28515625 m 1
 434.87890625 38.7080078125 l 1
 450.715820312 181.295898438 l 1
 766.626953125 160.413085938 l 1
 752.32421875 681.032226562 l 1
 82.7001953125 709.896484375 l 1
 117.376953125 44.28515625 l 1
454.758789062 382.879882812 m 1
 436.084960938 486.63671875 l 1
 288.309570312 562.275390625 l 1
 485.396484375 526.267578125 l 1
 480.848632812 384.612304688 l 1
 454.758789062 382.879882812 l 1
EndSplineSet
EndChar

StartChar: q
Encoding: 113 113 54
Width: 891
Flags: W
LayerCount: 2
Fore
SplineSet
829 723 m 1
 829 0 l 1
 381.615234375 0 l 1
 381.615234375 101.490234375 l 1
 57 101.490234375 l 1
 57 723 l 1
 829 723 l 1
122.155273438 161.282226562 m 1
 454.017578125 155.266601562 l 1
 454.017578125 47.322265625 l 1
 803.1875 13.8828125 l 1
 765.654296875 672.155273438 l 1
 82.9814453125 709.709960938 l 1
 122.155273438 161.282226562 l 1
381.615234375 316 m 1
 381.615234375 524.5 l 1
 551.826171875 524.5 l 1
 433.879882812 473.407226562 l 1
 407.689453125 314.053710938 l 1
 381.615234375 316 l 1
EndSplineSet
EndChar

StartChar: r
Encoding: 114 114 55
Width: 891
Flags: W
LayerCount: 2
Fore
SplineSet
828 203.928710938 m 1
 504.396484375 203.928710938 l 1
 504.396484375 0 l 1
 58 0 l 1
 58 721 l 1
 828 721 l 1
 828 203.928710938 l 1
446.213867188 445.1015625 m 1
 501.549804688 250.677734375 l 1
 801.374023438 224.809570312 l 1
 752.239257812 663.245117188 l 1
 83.8173828125 707.552734375 l 1
 122.3359375 55.634765625 l 1
 438.52734375 32.4716796875 l 1
 446.213867188 445.1015625 l 1
EndSplineSet
EndChar

StartChar: s
Encoding: 115 115 56
Width: 891
Flags: W
LayerCount: 2
Fore
SplineSet
828 721 m 1
 828 0 l 1
 58 0 l 1
 58 721 l 1
 828 721 l 1
119.065429688 187.467773438 m 1
 119.926757812 47.8623046875 l 1
 802.009765625 13.228515625 l 1
 770.822265625 444.176757812 l 1
 436 465 l 1
 400.731445312 490.497070312 l 1
 772.876953125 498.23046875 l 1
 771.118164062 674.11328125 l 1
 84.0322265625 707.794921875 l 1
 118.081054688 256.66015625 l 1
 409.232421875 260.499023438 l 1
 384 231 l 1
 119.065429688 187.467773438 l 1
EndSplineSet
EndChar

StartChar: t
Encoding: 116 116 57
Width: 891
Flags: W
LayerCount: 2
Fore
SplineSet
828 621.452148438 m 1
 828 0 l 1
 58 0 l 1
 58 721 l 1
 504.396484375 721 l 1
 504.396484375 621.452148438 l 1
 828 621.452148438 l 1
444.57421875 218 m 1
 444.573242188 426.5 l 1
 770.41796875 426.5 l 1
 763.55078125 577.580078125 l 1
 452.305664062 579.581054688 l 1
 449.131835938 680.395507812 l 1
 83.779296875 707.444335938 l 1
 120.359375 54.77734375 l 1
 801.822265625 13.3876953125 l 1
 771.005859375 377.579101562 l 1
 493.321289062 379.423828125 l 1
 470.698242188 216.348632812 l 1
 444.57421875 218 l 1
EndSplineSet
EndChar

StartChar: u
Encoding: 117 117 58
Width: 891
Flags: W
LayerCount: 2
Fore
SplineSet
828 721 m 1
 828 0 l 1
 58 0 l 1
 58 721 l 1
 828 721 l 1
83.8447265625 694.719726562 m 1
 123.309570312 33.4248046875 l 1
 803.999023438 17 l 1
 768.6171875 664 l 1
 506.999023438 671 l 1
 478.729492188 215.732421875 l 1
 432.34765625 220.151367188 l 1
 401 672 l 1
 83.8447265625 694.719726562 l 1
EndSplineSet
EndChar

StartChar: v
Encoding: 118 118 59
Width: 891
Flags: W
LayerCount: 2
Fore
SplineSet
60.0712890625 122.385742188 m 1
 58 721 l 1
 828.041992188 721 l 1
 828.041992188 104.412109375 l 1
 432.112304688 -0.61328125 l 1
 60.0712890625 122.385742188 l 1
114.608398438 162.046875 m 1
 433.016601562 13.673828125 l 1
 773.072265625 146.431640625 l 1
 774.995117188 682.038085938 l 1
 484.828125 671.918945312 l 1
 448 279 l 1
 402.4453125 674.658203125 l 1
 83.8505859375 707.03125 l 1
 114.608398438 162.046875 l 1
EndSplineSet
EndChar

StartChar: w
Encoding: 119 119 60
Width: 891
Flags: W
LayerCount: 2
Fore
SplineSet
828 721 m 1
 828 0 l 1
 58 0 l 1
 58 721 l 1
 828 721 l 1
444 251 m 1
 478.016601562 25.1630859375 l 1
 807 16 l 1
 774 677 l 1
 615 678 l 1
 604 336 l 1
 558 677 l 1
 331 684 l 1
 301.963867188 335.793945312 l 1
 263 686 l 1
 83.8310546875 694.526367188 l 1
 122.293945312 31.0400390625 l 1
 405.8984375 31.9619140625 l 1
 444 251 l 1
EndSplineSet
EndChar

StartChar: x
Encoding: 120 120 61
Width: 891
Flags: W
LayerCount: 2
Fore
SplineSet
828 721 m 1
 828 0 l 1
 58 0 l 1
 58 721 l 1
 828 721 l 1
450.764648438 279.599609375 m 1
 483.001953125 39.6103515625 l 1
 801.572265625 13.7158203125 l 1
 770.143554688 329.850585938 l 1
 615.336914062 362.194335938 l 1
 773.67578125 387.388671875 l 1
 774.59375 686.040039062 l 1
 474.029296875 675.897460938 l 1
 452.92578125 425.985351562 l 1
 426.752929688 426.278320312 l 1
 411.654296875 678.5234375 l 1
 84.6337890625 707.166992188 l 1
 120.825195312 385.151367188 l 1
 264.999023438 349 l 1
 120.484375 333.681640625 l 1
 107.565429688 30.9990234375 l 1
 413.63671875 42.0595703125 l 1
 424.646484375 278.5625 l 1
 450.764648438 279.599609375 l 1
EndSplineSet
EndChar

StartChar: y
Encoding: 121 121 62
Width: 891
Flags: W
LayerCount: 2
Fore
SplineSet
161 0 m 1
 161 139.4140625 l 1
 58 139.4140625 l 1
 58 760 l 1
 828 760 l 1
 828 139.4140625 l 1
 725 139.4140625 l 1
 725 0 l 1
 161 0 l 1
220.680664062 26.3369140625 m 1
 698 24 l 1
 678.178710938 174.845703125 l 1
 771.217773438 175.864257812 l 1
 780.765625 712.443359375 l 1
 490.8984375 700.486328125 l 1
 455 313 l 1
 409.483398438 701.162109375 l 1
 83.77734375 733.56640625 l 1
 114.370117188 171.422851562 l 1
 216.48046875 166.407226562 l 1
 220.680664062 26.3369140625 l 1
EndSplineSet
EndChar

StartChar: z
Encoding: 122 122 63
Width: 891
Flags: W
LayerCount: 2
Fore
SplineSet
828 721 m 1
 828 0 l 1
 58 0 l 1
 58 721 l 1
 828 721 l 1
113 372 m 1
 117.102539062 38.03125 l 1
 801.024414062 13.0576171875 l 1
 771.723632812 219.938476562 l 1
 455.217773438 204.516601562 l 1
 485 234 l 1
 770.025390625 276.716796875 l 1
 770.971679688 676.0859375 l 1
 84.4658203125 707.815429688 l 1
 107 440 l 1
 527 528 l 1
 550.48046875 514.1484375 l 1
 113 372 l 1
EndSplineSet
EndChar

StartChar: Q
Encoding: 65537 -1 64
Width: 841
Flags: W
LayerCount: 2
Fore
SplineSet
778 0 m 1
 58 0 l 1
 58 721 l 1
 778 721 l 1
 778 0 l 1
686 93 m 1
 686 211 l 1
 582 211 l 1
 582 303 l 1
 686 303 l 1
 686 629 l 1
 58 721 l 1
 150 93 l 1
 686 93 l 1
464 211 m 1
 372 211 l 1
 320 534 l 1
 464 511 l 1
 464 211 l 1
EndSplineSet
EndChar
